<svg id="Group_52" data-name="Group 52" xmlns="http://www.w3.org/2000/svg" width="40.554" height="40.554" viewBox="0 0 40.554 40.554">
  <path id="Path_862" data-name="Path 862" d="M134.127,183.511a9.716,9.716,0,0,1-5.951,2.012,9.819,9.819,0,0,1-9.807-9.807,9.716,9.716,0,0,1,2.012-5.951.594.594,0,0,0-.944-.722,10.9,10.9,0,0,0-2.256,6.673,11.008,11.008,0,0,0,11,11,10.9,10.9,0,0,0,6.673-2.256.594.594,0,0,0-.722-.944Z" transform="translate(-107.899 -155.438)" fill="#fff"/>
  <path id="Path_863" data-name="Path 863" d="M175.715,117.18a10.894,10.894,0,0,0-6.673,2.256.594.594,0,1,0,.722.944,9.716,9.716,0,0,1,5.951-2.012,9.819,9.819,0,0,1,9.807,9.807,9.716,9.716,0,0,1-2.012,5.951.594.594,0,1,0,.944.722,10.894,10.894,0,0,0,2.256-6.673A11.008,11.008,0,0,0,175.715,117.18Z" transform="translate(-155.438 -107.899)" fill="#fff"/>
  <path id="Path_864" data-name="Path 864" d="M39.354,17.591l-4.249-.6a.045.045,0,0,1-.038-.035c-.09-.4-.2-.807-.321-1.2a.045.045,0,0,1,.015-.05l3.38-2.642a1.4,1.4,0,0,0,.349-1.8l-1.305-2.26a1.4,1.4,0,0,0-1.729-.6L31.474,10.02a.045.045,0,0,1-.05-.012c-.279-.3-.575-.6-.878-.878a.045.045,0,0,1-.012-.05L32.141,5.1a1.4,1.4,0,0,0-.6-1.729l-2.26-1.3a1.4,1.4,0,0,0-1.8.349l-2.642,3.38a.045.045,0,0,1-.05.015c-.394-.123-.8-.231-1.2-.321a.045.045,0,0,1-.035-.038l-.6-4.249A1.4,1.4,0,0,0,21.582,0h-2.61a1.4,1.4,0,0,0-1.381,1.2l-.6,4.249a.045.045,0,0,1-.035.038c-.4.09-.808.2-1.2.321a.045.045,0,0,1-.05-.015l-2.642-3.38a1.4,1.4,0,0,0-1.8-.349l-2.26,1.3a1.4,1.4,0,0,0-.6,1.729L10.02,9.08a.045.045,0,0,1-.012.05c-.3.279-.6.574-.878.878a.045.045,0,0,1-.05.012L5.1,8.413a1.4,1.4,0,0,0-1.729.6l-1.3,2.26a1.4,1.4,0,0,0,.349,1.8l3.38,2.642a.045.045,0,0,1,.015.05c-.123.394-.231.8-.321,1.2a.045.045,0,0,1-.038.035l-4.249.6A1.4,1.4,0,0,0,0,18.972v2.61a1.4,1.4,0,0,0,1.2,1.381l4.249.6a.045.045,0,0,1,.038.035c.09.4.2.808.321,1.2a.045.045,0,0,1-.015.05L2.413,27.49a1.4,1.4,0,0,0-.349,1.8l1.3,2.26a1.4,1.4,0,0,0,1.729.6L9.08,30.534a.046.046,0,0,1,.05.012c.28.3.575.6.878.878a.045.045,0,0,1,.012.05L8.413,35.456a1.4,1.4,0,0,0,.6,1.729l2.26,1.3a1.4,1.4,0,0,0,1.8-.349l2.642-3.38a.045.045,0,0,1,.05-.015c.394.123.8.231,1.2.321a.045.045,0,0,1,.035.038l.6,4.249a1.4,1.4,0,0,0,1.381,1.2h2.61a1.4,1.4,0,0,0,1.381-1.2l.6-4.249a.045.045,0,0,1,.035-.038c.4-.09.808-.2,1.2-.321a.045.045,0,0,1,.05.015l2.642,3.38a1.4,1.4,0,0,0,1.8.349l2.26-1.305a1.4,1.4,0,0,0,.6-1.729l-1.607-3.981a.045.045,0,0,1,.012-.05c.3-.279.6-.575.878-.878a.046.046,0,0,1,.05-.012l3.981,1.607a1.4,1.4,0,0,0,1.729-.6l1.305-2.26a1.4,1.4,0,0,0-.349-1.8l-3.38-2.642a.045.045,0,0,1-.015-.05c.123-.395.231-.8.321-1.2a.045.045,0,0,1,.038-.035l4.249-.6a1.4,1.4,0,0,0,1.2-1.381v-2.61a1.4,1.4,0,0,0-1.2-1.38Zm.012,3.991a.207.207,0,0,1-.177.2l-4.249.6a1.239,1.239,0,0,0-1.032.953c-.083.371-.182.743-.3,1.106a1.24,1.24,0,0,0,.417,1.34l3.38,2.642a.207.207,0,0,1,.052.265l-1.305,2.26a.207.207,0,0,1-.256.088l-3.981-1.607a1.24,1.24,0,0,0-1.369.308c-.258.28-.53.552-.81.81a1.24,1.24,0,0,0-.308,1.369L31.04,35.9a.207.207,0,0,1-.088.256l-2.26,1.3a.207.207,0,0,1-.265-.052l-2.642-3.38a1.24,1.24,0,0,0-1.339-.417c-.363.113-.735.213-1.107.3a1.24,1.24,0,0,0-.953,1.032l-.6,4.249a.207.207,0,0,1-.2.177h-2.61a.207.207,0,0,1-.2-.177l-.6-4.249a1.24,1.24,0,0,0-.953-1.032c-.372-.083-.744-.182-1.107-.3a1.222,1.222,0,0,0-.364-.055,1.24,1.24,0,0,0-.975.473l-2.642,3.38a.207.207,0,0,1-.265.051l-2.26-1.3a.207.207,0,0,1-.088-.256l1.607-3.981a1.24,1.24,0,0,0-.308-1.369c-.279-.257-.552-.53-.809-.809a1.24,1.24,0,0,0-1.369-.308L4.653,31.039a.207.207,0,0,1-.256-.088l-1.3-2.26a.207.207,0,0,1,.051-.265l3.38-2.642a1.24,1.24,0,0,0,.417-1.34c-.113-.363-.213-.735-.3-1.107a1.24,1.24,0,0,0-1.032-.953l-4.249-.6a.207.207,0,0,1-.177-.2v-2.61a.207.207,0,0,1,.177-.2l4.249-.6a1.24,1.24,0,0,0,1.032-.953c.083-.372.182-.744.3-1.107a1.24,1.24,0,0,0-.417-1.339l-3.38-2.642a.207.207,0,0,1-.051-.265L4.4,9.6a.207.207,0,0,1,.256-.088l3.981,1.607A1.24,1.24,0,0,0,10,10.813c.258-.28.53-.552.809-.809a1.24,1.24,0,0,0,.308-1.369L9.514,4.654A.207.207,0,0,1,9.6,4.4l2.26-1.3a.207.207,0,0,1,.265.051l2.642,3.38a1.24,1.24,0,0,0,1.34.418c.363-.113.735-.213,1.107-.3a1.24,1.24,0,0,0,.953-1.032l.6-4.249a.207.207,0,0,1,.2-.177h2.61a.207.207,0,0,1,.2.177l.6,4.249a1.24,1.24,0,0,0,.953,1.032c.372.083.744.182,1.107.3a1.24,1.24,0,0,0,1.339-.417l2.642-3.38a.207.207,0,0,1,.265-.051l2.26,1.3a.207.207,0,0,1,.088.256L29.432,8.635A1.24,1.24,0,0,0,29.741,10c.279.258.552.53.809.809a1.24,1.24,0,0,0,1.369.308L35.9,9.514a.207.207,0,0,1,.256.088l1.3,2.26a.207.207,0,0,1-.051.266L34.03,14.77a1.24,1.24,0,0,0-.417,1.339c.113.363.213.736.3,1.107a1.239,1.239,0,0,0,1.032.953l4.249.6a.207.207,0,0,1,.177.2Z" transform="translate(0 0)" fill="#fff"/>
  <path id="Path_865" data-name="Path 865" d="M157.936,150.688a7.281,7.281,0,0,1,6.274,3.622.594.594,0,1,0,1.028-.6,8.416,8.416,0,1,0,1.013,2.793.594.594,0,1,0-1.171.2,7.239,7.239,0,0,1-.894,4.895,7.845,7.845,0,0,0-3.9-2.774,3.795,3.795,0,1,0-4.7,0,7.845,7.845,0,0,0-3.9,2.774,7.244,7.244,0,0,1,6.249-10.915Zm-2.606,5.167a2.606,2.606,0,1,1,2.606,2.606A2.609,2.609,0,0,1,155.329,155.855Zm2.606,3.794a6.634,6.634,0,0,1,5.518,2.979,7.237,7.237,0,0,1-11.037,0A6.634,6.634,0,0,1,157.936,159.65Z" transform="translate(-137.659 -137.659)" fill="#fff"/>
</svg>
