<?xml version="1.0" encoding="utf-8"?>
<!-- Generator: Adobe Illustrator 25.4.1, SVG Export Plug-In . SVG Version: 6.00 Build 0)  -->
<svg version="1.1" id="forms-white" xmlns="http://www.w3.org/2000/svg" xmlns:xlink="http://www.w3.org/1999/xlink" x="0px"
	 y="0px" viewBox="0 0 30.8 30.8" style="enable-background:new 0 0 30.8 30.8;" xml:space="preserve">
<style type="text/css">
	.st0{fill:#FFFFFF;}
</style>
<path id="Path_850" class="st0" d="M18.7,22.5c-2.1,0-3.8-1.7-3.8-3.8s1.7-3.8,3.8-3.8s3.8,1.7,3.8,3.8S20.8,22.5,18.7,22.5z
	 M18.7,15.7c-1.6,0-3,1.3-3,3s1.3,3,3,3c1.6,0,3-1.3,3-3S20.3,15.7,18.7,15.7L18.7,15.7z"/>
<path id="Path_851" class="st0" d="M18.7,20.7c-0.2,0-0.5-0.2-0.5-0.5V17c0-0.2,0.2-0.5,0.5-0.5c0.3,0,0.5,0.2,0.5,0.5v3.3
	C19.1,20.5,18.9,20.7,18.7,20.7z"/>
<path id="Path_852" class="st0" d="M20.3,19.1H17c-0.2,0-0.5-0.2-0.5-0.5s0.2-0.5,0.5-0.5h3.3c0.2,0,0.5,0.2,0.5,0.5
	S20.5,19.1,20.3,19.1z"/>
<path id="Path_853" class="st0" d="M13.7,20.7H9.9c-0.9,0-1.6-0.7-1.6-1.6V9.9C8.3,9,9,8.3,9.9,8.3h6.9c0.9,0,1.6,0.7,1.6,1.6v3.6
	c0,0.2-0.2,0.5-0.5,0.5c-0.3,0-0.5-0.2-0.5-0.5V9.9c0-0.4-0.3-0.7-0.7-0.7H9.9c-0.4,0-0.7,0.3-0.7,0.7v9.2c0,0.4,0.3,0.7,0.7,0.7
	h3.8c0.2,0,0.5,0.2,0.5,0.5C14.2,20.6,14,20.7,13.7,20.7L13.7,20.7L13.7,20.7z"/>
<path id="Path_854" class="st0" d="M16.1,13.9h-5.7c-0.2,0-0.5-0.2-0.5-0.5c0-0.2,0.2-0.5,0.5-0.5h5.7c0.2,0,0.5,0.2,0.5,0.5
	C16.6,13.7,16.4,13.9,16.1,13.9L16.1,13.9z"/>
<path id="Path_855" class="st0" d="M13.8,16.3h-3.3c-0.2,0-0.5-0.2-0.5-0.5c0-0.2,0.2-0.5,0.5-0.5h3.3c0.2,0,0.5,0.2,0.5,0.5
	C14.2,16.1,14,16.3,13.8,16.3z"/>
<path id="Path_856" class="st0" d="M13.2,11.6h-2.7c-0.2,0-0.5-0.2-0.5-0.5c0-0.3,0.2-0.5,0.5-0.5h2.7c0.2,0,0.5,0.2,0.5,0.5
	C13.6,11.4,13.4,11.6,13.2,11.6z"/>
</svg>
