<svg xmlns="http://www.w3.org/2000/svg" width="38.453" height="31.544" viewBox="0 0 38.453 31.544">
  <path id="Path_857" data-name="Path 857" d="M36.2,1.7H10.364A2.256,2.256,0,0,0,8.111,3.955V7.549L1.282.72A.751.751,0,0,0,.22,1.782l8.846,8.846L4.392,15.3l-3.11-3.11A.751.751,0,0,0,.22,13.255L6.463,19.5v.676a7.757,7.757,0,0,0,1.649,4.77v4.847a2.256,2.256,0,0,0,2.253,2.253H36.2a2.256,2.256,0,0,0,2.253-2.253V12.666a.751.751,0,1,0-1.5,0V29.791a.752.752,0,0,1-.751.751H20.521c.031-.028.062-.057.092-.087a2.154,2.154,0,0,0,.445-.647,2.169,2.169,0,0,0,2.91-2.909,2.169,2.169,0,0,0,.647-3.513L22.029,20.8a2.389,2.389,0,0,0,2.1-.97l.025-.034a2.439,2.439,0,0,0-.507-3.389c-.673-.5-1.584-1.18-2.708-2.022a9.24,9.24,0,0,0-5.5-1.829h-.01l-2.312,0L9.613,9.051v-5.1a.752.752,0,0,1,.751-.751h7.841v7.659a.751.751,0,0,0,1.282.531l1.632-1.632,1.632,1.632a.751.751,0,0,0,1.062,0l1.632-1.632,1.632,1.632a.751.751,0,0,0,1.282-.531V3.2H36.2a.752.752,0,0,1,.751.751v2.7a.751.751,0,1,0,1.5,0v-2.7A2.256,2.256,0,0,0,36.2,1.7ZM9.613,29.791V26.524l2.454,2.454h0l1.563,1.563H10.364A.752.752,0,0,1,9.613,29.791Zm5.82-15.734h.008a7.729,7.729,0,0,1,4.6,1.531c1.126.842,2.039,1.524,2.713,2.024a.933.933,0,0,1,.191,1.3l-.025.034a.886.886,0,0,1-1.194.221L18.844,17.3a.871.871,0,0,0-1.087,1.347l5.8,5.8a.666.666,0,0,1-.884.994l-2.909-2.909a.748.748,0,0,0-.063-.056l-.3-.3a.751.751,0,0,0-1.062,1.062l3.21,3.21c.033.033.068.065.1.1l.848.848a.666.666,0,1,1-.943.942l-.848-.848c-.031-.035-.062-.069-.1-.1L17.76,24.535a.8.8,0,0,0-.063-.056l-.3-.3a.751.751,0,0,0-1.062,1.062L19.6,28.509a.666.666,0,0,1-.994.884l-.948-.948c-.031-.035-.062-.07-.1-.1l-1.806-1.806a.8.8,0,0,0-.063-.056l-.3-.3a.751.751,0,0,0-1.062,1.062l2.218,2.218a.666.666,0,0,1-.994.884l-3.934-3.934h0L9.779,24.565a6.238,6.238,0,0,1-1.815-4.389l0-1.092,5.025-5.025ZM7.008,17.918,5.454,16.365l4.674-4.674,1.553,1.553ZM26.857,9.05l-.881-.881a.751.751,0,0,0-1.062,0L23.282,9.8,21.65,8.169a.751.751,0,0,0-1.062,0l-.881.881V3.2h7.15Zm0,0" transform="translate(0 -0.5)" fill="#fff"/>
</svg>
