<svg id="shuffle" xmlns="http://www.w3.org/2000/svg" width="32.762" height="25.742" viewBox="0 0 32.762 25.742">
  <g id="Group_54" data-name="Group 54">
    <g id="Group_53" data-name="Group 53" transform="translate(0 0)">
      <path id="Path_870" data-name="Path 870" d="M32.42,56.207l0,0h0l-4.68-4.68a1.17,1.17,0,0,0-1.654,1.654l2.684,2.684H22.231a8.2,8.2,0,0,0-8.19,8.19A5.857,5.857,0,0,1,8.19,69.9H1.17a1.17,1.17,0,1,0,0,2.34H8.19a8.2,8.2,0,0,0,8.19-8.19,5.857,5.857,0,0,1,5.85-5.85h6.536l-2.683,2.683a1.17,1.17,0,0,0,1.626,1.683l.029-.029,4.68-4.68A1.17,1.17,0,0,0,32.42,56.207Z" transform="translate(0 -51.197)" fill="#fff"/>
    </g>
  </g>
  <g id="Group_56" data-name="Group 56" transform="translate(16.387 14.04)">
    <g id="Group_55" data-name="Group 55" transform="translate(0 0)">
      <path id="Path_871" data-name="Path 871" d="M255.069,261.008l0,0h0l-4.68-4.68a1.17,1.17,0,0,0-1.654,1.654l2.684,2.684h-6.536a5.842,5.842,0,0,1-3.9-1.489,1.17,1.17,0,0,0-1.561,1.743,8.178,8.178,0,0,0,5.462,2.086h6.536l-2.683,2.683a1.17,1.17,0,1,0,1.626,1.683l.029-.029,4.68-4.68A1.17,1.17,0,0,0,255.069,261.008Z" transform="translate(-239.036 -255.998)" fill="#fff"/>
    </g>
  </g>
  <g id="Group_58" data-name="Group 58" transform="translate(0 4.667)">
    <g id="Group_57" data-name="Group 57" transform="translate(0 0)">
      <path id="Path_872" data-name="Path 872" d="M13.652,121.358a8.177,8.177,0,0,0-5.462-2.086H1.17a1.17,1.17,0,1,0,0,2.34H8.19a5.842,5.842,0,0,1,3.9,1.489,1.17,1.17,0,0,0,1.561-1.743Z" transform="translate(0 -119.272)" fill="#fff"/>
    </g>
  </g>
</svg>
